<svg width="41" height="45" viewBox="0 0 41 45" fill="none" xmlns="http://www.w3.org/2000/svg">
<path d="M12.9278 0H28.9364L10.1226 23.1432C10.1226 23.1432 -1.33215 20.8055 5.91471 9.11702L12.9278 0Z" fill="#76B3F8"/>
<path d="M22.744 25.2488L14.0945 36.0023C14.0945 36.0023 -10.5098 32.0188 5.29776 10.166C5.29776 10.166 0.535873 21.041 10.1204 23.1449L22.744 25.2488Z" fill="#A0EAF6"/>
<path d="M27.9265 45.0006H11.918L30.7318 21.8574C30.7318 21.8574 42.1865 24.1951 34.9396 35.8836L27.9265 45.0006Z" fill="#965BF9"/>
<path d="M18.1094 19.7554L26.7589 9.00195C26.7589 9.00195 51.3631 12.9854 35.5556 34.8382C35.5556 34.8382 40.3175 23.9632 30.7329 21.8593L18.1094 19.7554Z" fill="#DA7AD4"/>
</svg>
