<?xml version="1.0" standalone="no"?>
<!DOCTYPE svg PUBLIC "-//W3C//DTD SVG 20010904//EN"
 "http://www.w3.org/TR/2001/REC-SVG-20010904/DTD/svg10.dtd">
<svg version="1.0" xmlns="http://www.w3.org/2000/svg"
 width="500.000000pt" height="500.000000pt" viewBox="0 0 500.000000 500.000000"
 preserveAspectRatio="xMidYMid meet">

<g transform="translate(0.000000,500.000000) scale(0.100000,-0.100000)"
fill="#000000" stroke="none">
<path d="M2823 2832 c-12 -2 -55 -41 -98 -89 -66 -73 -76 -89 -70 -112 9 -38
29 -54 66 -54 27 0 45 12 111 81 81 85 91 108 63 149 -16 23 -38 30 -72 25z"/>
<path d="M2300 2542 c0 -19 49 -127 59 -130 12 -4 61 96 61 123 0 29 -21 14
-40 -27 l-19 -42 -16 42 c-10 23 -23 42 -31 42 -8 0 -14 -4 -14 -8z"/>
<path d="M2440 2534 c0 -9 5 -14 12 -12 18 6 21 28 4 28 -9 0 -16 -7 -16 -16z"/>
<path d="M2592 2539 c2 -6 8 -10 13 -10 5 0 11 4 13 10 2 6 -4 11 -13 11 -9 0
-15 -5 -13 -11z"/>
<path d="M3025 2520 c-13 -15 -16 -23 -8 -28 6 -4 13 -23 15 -42 2 -27 8 -36
26 -38 12 -2 22 1 22 7 0 6 -4 11 -9 11 -16 0 -19 50 -3 59 13 7 12 11 -5 30
l-20 21 -18 -20z"/>
<path d="M2508 2509 c-27 -15 -22 -47 7 -55 14 -3 25 -10 25 -15 0 -5 -12 -6
-26 -3 -20 5 -25 3 -22 -7 3 -8 19 -14 39 -14 28 0 35 4 37 22 3 17 -3 26 -22
33 -33 12 -34 22 -1 14 30 -7 34 11 6 26 -23 12 -22 12 -43 -1z"/>
<path d="M2662 2504 c-41 -28 -22 -94 28 -94 35 0 60 23 60 55 0 23 -32 55
-55 55 -6 0 -21 -7 -33 -16z m56 -40 c3 -22 -21 -39 -39 -28 -11 6 -12 38 -2
48 13 13 38 1 41 -20z"/>
<path d="M2440 2460 c0 -38 4 -50 15 -50 11 0 15 12 15 50 0 38 -4 50 -15 50
-11 0 -15 -12 -15 -50z"/>
<path d="M2590 2460 c0 -38 4 -50 15 -50 11 0 15 12 15 50 0 38 -4 50 -15 50
-11 0 -15 -12 -15 -50z"/>
<path d="M2770 2460 c0 -37 4 -50 14 -50 10 0 16 13 18 38 2 25 8 37 18 37 10
0 16 -12 18 -37 4 -45 32 -54 32 -10 0 61 -9 72 -56 72 l-44 0 0 -50z"/>
<path d="M2897 2503 c-12 -11 -8 -68 5 -81 7 -7 29 -12 50 -12 l38 0 0 50 0
50 -43 0 c-24 0 -47 -3 -50 -7z m60 -24 c16 -16 5 -39 -18 -39 -12 0 -19 7
-19 18 0 31 17 41 37 21z"/>
<path d="M3112 2498 c-7 -7 -12 -24 -12 -38 0 -14 5 -31 12 -38 17 -17 63 -15
79 5 13 15 11 16 -18 10 -18 -3 -35 -2 -38 3 -4 6 9 10 29 10 28 0 36 4 36 18
0 25 -20 42 -50 42 -14 0 -31 -5 -38 -12z m58 -18 c0 -5 -9 -10 -20 -10 -11 0
-20 5 -20 10 0 6 9 10 20 10 11 0 20 -4 20 -10z"/>
<path d="M2580 2325 c0 -14 2 -25 4 -25 2 0 6 11 8 25 3 14 1 25 -3 25 -5 0
-9 -11 -9 -25z"/>
<path d="M2877 2343 c-10 -9 -9 -43 1 -43 4 0 8 11 8 25 0 28 0 28 -9 18z"/>
<path d="M2361 2322 c-1 -17 4 -23 16 -20 10 2 18 11 19 21 1 12 1 13 -3 2 -6
-20 -20 -19 -26 3 -3 12 -5 11 -6 -6z"/>
<path d="M2432 2320 c0 -14 2 -19 5 -12 2 6 2 18 0 25 -3 6 -5 1 -5 -13z"/>
<path d="M2471 2323 c-1 -17 5 -23 19 -23 11 0 20 5 20 11 0 6 -6 9 -14 6 -9
-4 -17 1 -19 11 -3 12 -5 11 -6 -5z"/>
<path d="M2636 2325 c-8 -22 -8 -22 9 -22 17 0 18 6 6 25 -7 11 -10 10 -15 -3z"/>
<path d="M2790 2324 c0 -15 7 -20 25 -20 18 0 25 5 25 19 0 15 -3 17 -13 8
-10 -8 -17 -7 -25 1 -9 9 -12 7 -12 -8z"/>
<path d="M2931 2322 c-1 -17 4 -23 16 -20 10 2 18 11 19 21 1 12 1 13 -3 2 -6
-20 -20 -19 -26 3 -3 12 -5 11 -6 -6z"/>
<path d="M3002 2320 c0 -14 2 -19 5 -12 2 6 2 18 0 25 -3 6 -5 1 -5 -13z"/>
<path d="M3046 2325 c-8 -22 -8 -22 9 -22 17 0 18 6 6 25 -7 11 -10 10 -15 -3z"/>
</g>
</svg>
